<svg version="1.2" xmlns="http://www.w3.org/2000/svg" viewBox="0 0 30 30" width="30" height="30"><style>.a{fill:#fff}</style><path fill-rule="evenodd" class="a" d="m25.7 4.3q0.5 0 1.1 0.1c0.3 0 0.7-0.1 0.9 0q0.8 0 1.6 0c0.4 0.1 0.7 0.5 0.7 1q0 0 0 0 0 0.1-0.1 0.2 0 0 0 0 0 0.1 0 0.1 0 0-0.1 0.1 0 0 0 0-0.5 0.5-0.9 1-1.4 1.4-2.8 2.8-2.2 0-4.3 0-0.5 0.5-1 1-0.1 0.1-0.2 0.2c-0.2 0.3-0.6 0.6-0.9 1q-0.7 0.6-1.3 1.3-0.4 0.3-0.8 0.7-1 1-2 2-0.1 0-0.1 0 0 0.1-0.1 0.1-0.1 0-0.2 0.1 0 0 0 0c-0.2 0.1-0.6-0.1-0.7-0.2q-0.1-0.1-0.2-0.2-0.1 0-0.1 0 0-0.1 0-0.2-0.1 0-0.1 0 0 0 0-0.1 0 0 0 0 0 0 0-0.1 0 0-0.1 0 0-0.2 0-0.4 0.1 0 0.1 0 0-0.1 0-0.2 0 0 0.1 0 0-0.1 0-0.1 0 0 0-0.1 0 0 0 0 0.1 0 0.1 0c0-0.1 0.1-0.1 0.1-0.2q0 0 0.1 0c0-0.2 0.1-0.2 0.2-0.2q0-0.1 0-0.1 0 0 0.1 0 0-0.1 0-0.1 0 0 0 0 0 0 0-0.1 0.1 0 0.1 0 0 0 0-0.1 0.1 0 0.1 0c0-0.1 0 0 0.1-0.1q0 0 0-0.1 0.1 0 0.1 0 0 0 0 0 0 0 0.1 0 0-0.1 0-0.1 0 0 0.1 0 0-0.1 0-0.1 0 0 0 0 0 0 0-0.1 0.1 0 0.1 0c0-0.1 0-0.1 0.1-0.1q0 0 0-0.1 0.1 0 0.1 0 0 0 0-0.1 0.1 0 0.1 0 0 0 0 0 0 0 0.1 0 0-0.1 0-0.1 0 0 0.1 0 0-0.1 0-0.1 0 0 0 0c0.1-0.1 0.1-0.1 0.2-0.1q0-0.1 0-0.1 0 0 0 0 0 0 0-0.1 0.1 0 0.1 0 0 0 0-0.1 0.1 0 0.1 0 0 0 0 0 0 0 0.1 0 0-0.1 0-0.1 0 0 0.1 0c0-0.1 0-0.1 0.1-0.1q0-0.1 0-0.1 0 0 0.1 0 0-0.1 0-0.1 0 0 0 0c0.1-0.2 0.5-0.5 0.6-0.6q0 0 0 0 0.7-0.7 1.3-1.3c0.2-0.2 0.4-0.5 0.6-0.5q0-0.1 0-0.1 0 0 0.1 0 0-0.1 0-0.1 0 0 0 0 0 0 0-0.1 0.1 0 0.1 0c0-0.1 0-0.1 0.1-0.1q0 0 0-0.1 0.1 0 0.1 0 0 0 0-0.1 0.1 0 0.1 0 0 0 0 0 0 0 0.1 0 0-0.1 0-0.1 0 0 0.1 0 0-0.1 0-0.1c0.1 0 0 0 0.1-0.1q0 0 0.1 0 0-0.1 0-0.1 0 0 0 0 0 0 0-0.1 0.1 0 0.1 0 0 0 0-0.1 0.1 0 0.1 0c0.1-0.4 0-1 0-1.5q0-1.4 0-2.8c0.1-0.1 0.2-0.2 0.2-0.2 0.4-0.3 0.6-0.6 0.9-0.9q1-1 2-2 0.3-0.3 0.6-0.6 0 0 0.1 0 0 0 0 0 0.1 0 0.1 0 0-0.1 0-0.1c0.1-0.1 0.4-0.1 0.6-0.1q0 0 0 0 0 0 0.1 0 0 0.1 0 0.1 0 0 0.1 0 0 0 0 0.1 0.1 0 0.1 0 0 0 0 0 0.1 0.1 0.3 0.2 0 0 0 0.1 0 0 0 0 0 0 0 0.1 0 0 0 0 0 0 0 0.1 0.1 0 0.1 0 0 0.3 0 0.7c0.1 0.2 0 0.6 0 0.9q0 0 0.1 0 0 1 0 2zm-7.4 1.8q-0.2-0.1-0.3-0.1 0-0.1 0-0.1-0.2 0-0.3 0 0 0 0-0.1 0 0-0.1 0 0 0 0 0-0.1 0-0.2 0 0-0.1 0-0.1-0.1 0-0.1 0 0 0 0 0-0.2 0-0.3-0.1 0 0 0 0-0.1 0-0.3 0 0-0.1 0-0.1-0.8-0.1-1.5-0.3-0.3 0-0.6 0 0 0 0 0c-0.2-0.1-1.1 0-1.2 0q-0.3 0-0.6 0 0 0.1 0 0.1-0.1 0-0.3 0 0 0 0 0-0.1 0-0.3 0 0 0 0 0.1-0.1 0-0.2 0 0 0 0 0-0.1 0-0.2 0 0 0 0 0-0.1 0-0.2 0 0 0.1 0 0.1-0.1 0-0.3 0-0.7 0.3-1.5 0.5 0 0 0 0 0 0.1-0.1 0.1 0 0 0 0-0.1 0-0.1 0 0 0 0 0.1-0.1 0-0.1 0 0 0 0 0-0.1 0-0.2 0.1 0 0 0 0-0.1 0-0.1 0 0 0 0 0.1-0.1 0-0.1 0 0 0 0 0-0.1 0-0.2 0.1-0.1 0-0.1 0.1-0.1 0-0.2 0 0 0.1-0.1 0.1 0 0-0.1 0.1 0 0-0.1 0 0 0.1-0.1 0.1 0 0 0 0-0.1 0-0.1 0.1-0.1 0-0.1 0 0 0-0.1 0 0 0.1 0 0.2-0.1 0-0.1 0 0 0-0.1 0 0 0 0 0-0.1 0.1-0.1 0.2-0.1 0-0.1 0 0 0-0.1 0.1 0 0-0.1 0 0 0.1-0.1 0.1 0 0-0.1 0-0.1 0.2-0.2 0.3 0 0 0 0-0.2 0.1-0.3 0.3-0.4 0.3-0.7 0.6 0 0.1 0 0.1-0.1 0.1-0.2 0.2 0 0.1 0 0.1-0.1 0.1-0.2 0.1 0 0.1 0 0.1-0.1 0-0.1 0.1 0 0 0 0.1-0.1 0-0.1 0 0 0.1 0 0.1-0.1 0-0.1 0.1 0 0 0 0-0.1 0.1-0.1 0.1 0 0.1 0 0.1-0.1 0-0.1 0 0 0.1 0 0.1-0.1 0-0.1 0.1 0 0 0 0.1-0.1 0-0.1 0.1 0 0-0.1 0.1 0 0 0 0.1-0.1 0.1-0.1 0.2-0.1 0-0.1 0 0 0.1 0 0.1 0 0 0 0 0 0.1 0 0.1-0.1 0-0.1 0 0 0 0 0.1 0 0 0 0 0 0 0 0.1 0 0-0.1 0 0 0 0 0 0 0 0 0 0 0.2-0.1 0.3 0 0 0 0 0 0 0 0.1 0 0-0.1 0 0 0 0 0.1 0 0 0 0 0 0 0 0.1 0 0 0 0 0 0 0 0-0.1 0-0.1 0 0 0.1 0 0.2 0 0 0 0 0 0 0 0 0 0-0.1 0 0 0.2 0 0.3 0 0 0 0 0 0 0 0.1-0.1 0-0.1 0-0.2 0.7-0.4 1.4 0 0.4-0.1 0.7 0 0 0 0 0 0.2 0 0.3 0 0 0 0 0 0.3 0 0.6-0.1 0-0.1 0c0 0.2 0 1.1 0.1 1.2q0 0.3 0 0.6 0 0 0 0 0 0.1 0 0.3 0 0 0 0 0 0.1 0 0.3 0.1 0 0.1 0 0 0.1 0 0.2 0 0 0 0 0 0.1 0 0.2 0 0 0.1 0 0 0.1 0 0.2 0 0 0 0 0 0.1 0 0.2 0 0 0 0 0 0 0 0.1 0.1 0 0.1 0 0 0.2 0 0.3 0 0 0.1 0 0 0.1 0 0.1 0 0 0 0 0 0.1 0 0.2 0 0 0 0 0 0 0 0.1 0.1 0 0.1 0 0 0.1 0 0.1 0 0 0 0 0 0.1 0 0.1 0 0 0.1 0 0 0.1 0 0.1 0 0 0 0 0 0.1 0 0.3 0.1 0 0.1 0 0 0 0 0 0 0 0 0 0 0.1 0 0.2 0 0 0.1 0 0 0 0 0.1 0 0 0 0 0 0.1 0 0.1 0.1 0 0.1 0 0 0.1 0 0.1 0 0 0 0 0.1 0.1 0.1 0.3 0 0 0 0 0 0 0 0 0.1 0 0.1 0 0 0.1 0 0.1 0 0 0 0 0.1 0.1 0.1 0.3 0 0 0.1 0 0 0.1 0.1 0.2 0 0.1 0 0.1 0.1 0.1 0.1 0.1 0 0.1 0.1 0.1 0 0.1 0 0.1 0 0.1 0.1 0.1 0 0 0 0.1 0 0 0 0 0 0 0.1 0.1 0 0 0 0 0 0.1 0 0.1 0.1 0 0.2 0.1 0 0 0 0.1 0 0 0.1 0 0 0.1 0 0.1 0 0.1 0.1 0.1 0 0 0 0.1 0.1 0 0.2 0.1 0 0 0 0.1 0.1 0.1 0.2 0.2 0 0 0 0.1 0.3 0.3 0.7 0.6 0.1 0.2 0.3 0.3 0 0 0 0 0.1 0.1 0.2 0.3 0.1 0 0.1 0 0.1 0 0.1 0.1 0.1 0 0.1 0 0.1 0.1 0.1 0.1 0 0 0.1 0 0 0.1 0.1 0.2 0 0 0 0 0.1 0 0.1 0.1 0.1 0 0.1 0 0 0 0 0.1 0.1 0 0.1 0 0 0 0.1 0 0 0.1 0.1 0.1 0 0 0 0 0.1 0 0.1 0.1 0.1 0 0.1 0 0.1 0.1 0.1 0.1 0.1 0 0.1 0.1 0.1 0 0.2 0 0 0.1 0.1 0.1 0 0 0 0 0 0 0 0.1 0.1 0 0.1 0 0 0 0 0 0.1 0 0.1 0 0 0 0 0 0 0 0.1 0 0 0.1 0 0.1 0 0 0.1 0 0 0 0 0 0 0 0 0 0 0 0 0.1 0.1 0 0.3 0 0 0.1 0 0.1 0.1 0 0.2 0 0 0 0 0.1 0 0 0 0 0 0 0 0 0.1 0 0.2 0 0 0 0 0 0 0 0 0 0 0.1 0 0.1 0.2 0 0.3 0 0 0 0 0.1 0 0 0.1 0 0 0 0 0 0.1 0 0.3 0.1 0 0 0 0 0.1 0 0.2 0 0 0 0 0.1 0 0 0.1 0 0 0 0 0 0.1 0 0.3 0 0 0.1 0 0.1 0.1 0 0.1 0 0 0 0 0 0.2 0 0.4 0.1 0 0 0 0 0.1 0 0.2 0 0 0 0 0 0.1 0 0.2 0 0 0.1 0 0.1 0.2 0 0.3 0 0 0 0 0 0.4 0 0.9 0.1 0 0 0 0c0.2 0.1 1.1 0 1.2 0q0.5-0.1 0.9-0.1 0 0 0 0 0.1 0 0.3 0 0 0 0-0.1 0.1 0 0.2 0 0 0 0 0 0.1 0 0.2 0 0 0 0 0 0.1 0 0.2 0 0-0.1 0-0.1 0.1 0 0.3 0 0 0 0-0.1 0.1 0 0.1 0 0 0 0 0 0.1 0 0.2 0 0 0 0 0 0.1 0 0.1 0 0-0.1 0-0.1 0.1 0 0.2 0 0 0 0 0 0 0 0.1 0 0 0 0-0.1 0.1 0 0.1 0 0 0 0 0 0.1 0 0.1 0 0 0 0 0 0.1 0 0.1 0 0-0.1 0-0.1 0.1 0 0.3 0 0 0 0-0.1 0 0 0 0 0 0 0 0 0.1 0 0.2 0 0 0 0 0 0-0.1 0.1-0.1 0 0 0 0 0.1 0 0.1 0 0 0 0-0.1 0.1 0 0.1 0 0 0 0 0 0.1 0 0.3-0.1 0 0 0 0 0 0 0 0 0 0 0-0.1 0.1 0 0.1 0 0 0 0 0 0.1 0 0.3-0.1 0 0 0-0.1 0.1 0 0.2 0 0.1-0.1 0.1-0.1 0.1 0 0.1-0.1 0.1 0 0.1 0 0.1-0.1 0.1-0.1 0.1 0 0.1-0.1 0 0 0.1 0 0 0 0 0 0 0 0.1 0 0-0.1 0-0.1 0.1 0 0.1 0 0-0.1 0-0.1 0.1 0 0.2 0 0-0.1 0-0.2 0.1 0 0.1 0 0.1 0 0.1-0.1 0 0 0.1 0 0-0.1 0.1-0.1 0 0 0.1 0 0.1-0.2 0.2-0.3 0 0 0.1 0 0.2-0.2 0.4-0.4 0.2-0.3 0.5-0.5 0-0.1 0-0.1 0.1-0.1 0.2-0.2 0-0.1 0-0.1 0.1-0.1 0.2-0.1 0-0.1 0-0.1 0.1 0 0.1-0.1 0 0 0-0.1 0.1 0 0.1 0 0.1-0.1 0.1-0.2 0 0 0.1 0 0 0 0-0.1 0 0 0 0 0.1-0.1 0.1-0.1 0 0 0 0 0-0.1 0-0.1 0.1 0 0.1-0.1 0 0 0-0.1 0.1 0 0.1-0.1 0 0 0.1-0.1 0 0 0-0.1 0.1-0.1 0.1-0.2 0.1 0 0.1 0 0-0.1 0-0.1 0 0 0 0 0-0.1 0-0.1 0.1 0 0.1 0 0 0 0-0.1 0 0 0 0 0 0 0-0.1 0 0 0.1 0 0 0 0 0 0 0 0 0 0-0.1 0-0.1 0 0 0 0 0.1-0.1 0.1-0.3 0 0 0.1 0 0 0 0-0.1 0 0 0 0 0-0.1 0-0.1 0.1 0 0.1 0 0.2-0.8 0.5-1.5 0-0.2 0-0.3 0 0 0 0 0-0.1 0-0.2 0.1 0 0.1 0 0-0.1 0-0.2 0 0 0 0 0-0.1 0-0.2 0 0 0.1 0 0-0.4 0-0.8 0-0.2 0-0.4 0.1 0 0.1 0c0-0.2 0-1.1-0.1-1.2q0-0.5 0-0.9 0 0 0 0 0-0.1 0-0.3-0.1 0-0.1 0 0-0.1 0-0.2 0 0 0 0 0-0.1 0-0.2 0 0-0.1 0 0-0.2 0-0.4 0 0 0 0 0 0 0-0.1-0.1 0-0.1 0 0-0.2 0-0.3 0 0-0.1 0 0-0.1 0-0.1 0 0 0 0 0-0.1 0-0.2 0 0 0 0 0 0 0-0.1-0.1 0-0.1 0 0-0.1 0-0.1 0 0 0 0 0-0.1 0-0.1 0 0-0.1 0 0-0.1 0-0.1 0 0 0 0 0-0.1 0-0.3-0.1 0-0.1 0 0-0.1-0.1-0.3c0.8 0 1.9 0.1 2.6-0.1q0.2-0.1 0.5-0.1 0 0 0-0.1 0 0 0.1 0 0 0 0 0c0.1-0.1 0.1 0 0.1 0 0.1 0.1 0.1 0.4 0.2 0.6 0.2 0.5 0.2 1 0.4 1.5q0 0.3 0 0.5 0 0 0.1 0 0 0.2 0 0.3 0 0 0 0 0 0.2 0 0.4 0 0 0 0 0 0.3 0 0.5c0.1 0.4 0.1 1.3 0 1.6q0 0.2 0 0.5 0 0 0 0 0 0.2 0 0.4 0 0 0 0 0 0.1 0 0.3-0.1 0-0.1 0 0 0.1 0 0.2c0 0.2-0.1 0.5-0.1 0.7q0 0.1 0 0.2-0.1 0-0.1 0 0 0.1 0 0.1 0 0 0 0 0 0.1 0 0.2 0 0-0.1 0 0 0.1 0 0.2 0 0 0 0 0 0 0 0.1 0 0 0 0 0 0.1 0 0.2-0.1 0-0.1 0 0 0 0 0.1 0 0 0 0 0 0.1 0 0.1 0 0-0.1 0 0 0.1 0 0.1 0 0 0 0 0 0.2 0 0.3-0.1 0-0.1 0 0 0.1 0 0.1 0 0 0 0-0.1 0.2-0.1 0.4 0 0 0 0 0 0 0 0-0.1 0-0.1 0 0 0.1 0 0.2 0 0 0 0 0 0.1-0.1 0.2 0 0 0 0 0 0 0 0 0 0 0 0 0 0.1 0 0.2-0.1 0-0.1 0 0 0.1-0.1 0.2 0 0 0 0 0 0 0 0.1 0 0 0 0 0 0 0 0.1-0.1 0-0.1 0 0 0.1-0.1 0.2 0 0 0 0 0 0.1 0 0.1 0 0 0 0-0.1 0.1-0.1 0.3-0.1 0-0.1 0 0 0 0 0.1 0 0 0 0 0 0 0 0.1-0.1 0-0.1 0 0 0 0 0 0 0 0 0 0 0.1 0 0.1-0.1 0-0.1 0.1 0 0.1-0.1 0.2 0 0-0.1 0 0 0.1 0 0.1 0 0 0 0.1-0.1 0-0.1 0.1 0 0-0.1 0.1 0 0 0 0 0 0.1 0 0.1 0 0 0 0.1-0.1 0-0.1 0 0 0 0 0.1 0 0-0.1 0 0 0 0 0.1 0 0-0.1 0 0 0.1 0 0.1 0 0.1-0.1 0.1 0 0 0 0.1-0.1 0-0.1 0.1 0 0 0 0-0.1 0.1-0.1 0.1 0 0.1 0 0.1-0.1 0.1-0.2 0.1 0 0.1 0 0.1-0.1 0.1-0.2 0.1c-0.3 0.5-0.6 0.8-1 1.1q-0.2 0.3-0.4 0.5 0 0-0.1 0-0.1 0.1-0.2 0.2 0 0-0.1 0 0 0.1-0.1 0.2-0.1 0-0.1 0-0.1 0.1-0.1 0.2-0.1 0-0.1 0 0 0-0.1 0.1 0 0-0.1 0 0 0.1 0 0.1-0.1 0-0.1 0-0.1 0.1-0.1 0.1 0 0-0.1 0 0 0.1 0 0.1-0.1 0-0.1 0.1 0 0 0 0-0.1 0-0.1 0 0 0-0.1 0.1 0 0 0 0-0.1 0-0.1 0.1 0 0 0 0-0.1 0-0.1 0-0.1 0.1-0.1 0.1-0.1 0-0.1 0.1 0 0-0.1 0 0 0 0 0 0 0-0.1 0 0 0.1 0 0.1 0 0-0.1 0 0 0 0 0 0 0 0 0-0.1 0.1-0.1 0.1 0 0-0.1 0 0 0 0 0 0 0 0 0 0 0.1 0 0.1-0.1 0-0.1 0 0 0 0 0-0.1 0-0.1 0 0 0.1 0 0.1-0.2 0-0.3 0.1 0 0 0 0 0 0-0.1 0 0 0 0 0.1-0.1 0-0.2 0 0 0.1 0 0.1-0.1 0-0.1 0 0 0 0 0-0.1 0-0.1 0 0 0 0 0.1-0.1 0-0.2 0 0 0.1 0 0.1-0.1 0-0.2 0 0 0 0 0 0 0 0 0 0 0 0 0.1-0.1 0-0.2 0 0 0 0 0 0 0 0 0 0 0 0 0-0.1 0-0.2 0 0 0.1 0 0.1 0 0 0 0 0 0 0 0-0.2 0.1-0.4 0.1 0 0 0 0 0 0-0.1 0 0 0.1 0 0.1-0.1 0-0.3 0 0 0 0 0.1 0 0-0.1 0 0 0 0 0 0 0-0.1 0 0 0 0 0-0.1 0-0.1 0 0 0.1 0 0.1-0.1 0-0.2 0 0 0 0 0-0.1 0-0.1 0 0 0 0 0.1-0.1 0-0.2 0 0 0 0 0-0.1 0-0.2 0 0 0 0 0 0 0-0.1 0 0 0.1 0 0.1-0.1 0-0.2 0 0 0 0 0-0.1 0-0.2 0 0 0 0 0.1-0.1 0-0.2 0 0 0 0 0-0.1 0-0.3 0 0 0 0 0-0.2 0.1-0.5 0.1 0 0 0 0-0.8 0.1-1.6 0.1-0.7 0-1.4 0 0-0.1 0-0.1-0.2 0-0.4 0 0 0 0 0-0.1 0-0.3 0-0.9-0.2-1.9-0.4c-0.9-0.4-1.9-0.7-2.7-1.2q0 0-0.1 0 0 0 0 0 0 0 0 0 0 0 0-0.1-0.1 0-0.1 0 0 0 0 0-0.1 0-0.1 0 0 0 0-0.1-0.2 0-0.3-0.1 0 0 0 0 0 0-0.1 0 0-0.1 0-0.1-0.1 0-0.2-0.1 0 0 0 0-0.1 0-0.1 0 0-0.1-0.1-0.1 0 0 0 0-0.1-0.1-0.1-0.1 0 0-0.1 0 0 0 0 0 0-0.1-0.1-0.1 0 0 0-0.1-0.1 0-0.1 0 0 0-0.1-0.1 0 0-0.1 0 0 0 0-0.1-0.1 0-0.1 0-0.1-0.1-0.1-0.1 0 0-0.1 0 0-0.1-0.1-0.2 0 0-0.1 0 0 0-0.1-0.1 0 0 0 0 0 0 0-0.1-0.1 0-0.1 0-0.1-0.1-0.2-0.2-0.1 0-0.1 0-0.2-0.3-0.5-0.5-0.3-0.4-0.7-0.7 0 0 0-0.1-0.1-0.1-0.2-0.2 0 0 0 0-0.1-0.1-0.2-0.2 0 0 0-0.1-0.1 0-0.2-0.1 0 0 0-0.1 0 0-0.1-0.1 0 0 0 0 0-0.1-0.1-0.1 0-0.1 0-0.1-0.1 0-0.1-0.1 0 0 0-0.1-0.1 0-0.1 0 0-0.1 0-0.1-0.1 0-0.1 0 0-0.1 0-0.1 0 0-0.1 0 0-0.1 0-0.1 0 0 0-0.1 0 0 0 0-0.1-0.1-0.1-0.1 0-0.1-0.1-0.1 0-0.1 0-0.1-0.1 0-0.1-0.1 0 0 0 0-0.1-0.1-0.1-0.2 0-0.1-0.1-0.1 0 0 0-0.1 0 0 0 0 0 0 0 0 0 0-0.1 0 0-0.1 0-0.1 0 0 0 0 0-0.1 0-0.1c-0.5-0.8-0.8-1.8-1.2-2.7q0-0.2 0-0.3 0 0 0 0 0-0.1 0-0.2-0.1 0-0.1 0 0-0.1 0-0.2 0 0 0 0 0 0 0-0.1 0 0-0.1 0 0-0.1 0-0.2 0 0 0 0 0-0.2 0-0.4-0.1 0-0.1 0 0-0.1 0-0.3 0 0 0 0 0-0.1 0-0.2 0 0-0.1 0 0-0.4 0-0.7 0 0 0 0 0-0.3 0-0.5c-0.1-0.3-0.1-1.2 0-1.6q0-0.2 0-0.5 0 0 0 0 0-0.3 0-0.7 0.1 0 0.1 0 0-0.1 0-0.2c0-0.2 0.1-0.5 0.1-0.7q0-0.1 0-0.2 0.1 0 0.1 0 0-0.1 0-0.1 0 0 0 0 0-0.1 0-0.2 0 0 0.1 0 0-0.1 0-0.2 0 0 0 0 0 0 0-0.1 0 0 0 0 0-0.1 0-0.2 0.1 0 0.1 0 0 0 0-0.1 0 0 0 0 0-0.1 0-0.1 0 0 0.1 0 0-0.1 0-0.1 0 0 0 0 0-0.1 0-0.2 0 0 0 0 0-0.1 0-0.1 0.1 0 0.1 0 0-0.1 0-0.1 0 0 0 0 0.1-0.2 0.1-0.4 0 0 0 0 0 0 0 0 0.1 0 0.1 0 0-0.1 0-0.2 0 0 0 0 0 0 0 0 0 0 0.1 0 0-0.1 0-0.2 0 0 0 0 0 0 0 0 0 0 0 0 0-0.1 0-0.2 0.1 0 0.1 0 0-0.1 0.1-0.2 0 0 0 0 0 0 0-0.1 0 0 0 0 0 0 0-0.1 0.1 0 0.1 0 0-0.1 0.1-0.2 0 0 0 0 0-0.1 0-0.1 0 0 0 0 0.1-0.1 0.1-0.3 0.1 0 0.1 0 0 0 0-0.1 0 0 0 0 0 0 0-0.1 0.1 0 0.1 0 0 0 0 0 0 0 0 0 0-0.1 0-0.1 0.1 0 0.1-0.1 0-0.1 0.1-0.2 0 0 0 0 0-0.1 0.1-0.1 0 0 0-0.1 0.1 0 0.1-0.1 0 0 0 0 0-0.1 0.1-0.1 0-0.1 0-0.1 0 0 0-0.1 0.1 0 0.1 0 0 0 0-0.1 0.1 0 0.1 0 0-0.1 0-0.1 0.1 0 0.1-0.1 0 0 0-0.1 0.1 0 0.1 0 0 0 0-0.1 0.1 0 0.1-0.1 0 0 0 0 0.1-0.1 0.1-0.1 0-0.1 0-0.1 0.1-0.1 0.2-0.1 0-0.1 0-0.1 0.1 0 0.1-0.1 0 0 0 0 0.1 0 0.1-0.1 0 0 0 0 0.1-0.1 0.2-0.2 0-0.1 0-0.1 0.3-0.3 0.6-0.6 0.3-0.3 0.6-0.6 0 0 0.1 0 0.1-0.1 0.2-0.2 0 0 0.1 0 0-0.1 0.1-0.2 0.1 0 0.1 0 0.1-0.1 0.1-0.2 0.1 0 0.1 0 0 0 0.1-0.1 0 0 0.1 0 0-0.1 0-0.1 0.1 0 0.1 0 0-0.1 0.1-0.1 0 0 0 0 0.1-0.1 0.1-0.1 0.1 0 0.1 0 0-0.1 0-0.1 0.1 0 0.1 0 0 0 0.1-0.1 0 0 0 0 0.1 0 0.1-0.1 0 0 0.1 0 0 0 0 0 0.1-0.1 0.2-0.1 0 0 0-0.1 0.1 0 0.1 0 0 0 0 0 0.1 0 0.1 0 0-0.1 0-0.1 0 0 0.1 0 0 0 0 0 0 0 0.1 0 0-0.1 0-0.1 0 0 0.1 0 0 0 0 0 0 0 0.1 0 0-0.1 0-0.1 0 0 0 0 0 0 0 0 0.1 0 0.1 0 0-0.1 0.1-0.1 0 0 0 0 0 0 0 0 0.2-0.1 0.3-0.1 0 0 0-0.1 0.1 0 0.2 0 0-0.1 0-0.1 0.1 0 0.1 0 0 0 0 0 0.1 0 0.1 0 0 0 0-0.1 0.1 0 0.3 0 0-0.1 0-0.1 0 0 0.1 0 0 0 0 0 0 0 0.1 0 0 0 0-0.1 0 0 0.1 0 0 0 0 0 0 0 0.1 0 0 0 0 0 0 0 0.1 0 0-0.1 0-0.1 0 0 0.1 0 0 0 0 0 0.1-0.1 0.3-0.1 0 0 0 0 0 0 0.1 0 0-0.1 0-0.1 0.1 0 0.3 0 0 0 0-0.1 0 0 0.1 0 0 0 0 0 0 0 0.1 0 0 0 0 0 0.1 0 0.1 0 0-0.1 0-0.1 0.2 0 0.3 0 0 0 0-0.1 0.1 0 0.2 0 0 0 0 0 0.1 0 0.2 0 0 0 0 0 0 0 0.1 0 0-0.1 0-0.1 0.1 0 0.2 0 0 0 0 0 0.2 0 0.4-0.1 0 0 0 0 0.1 0 0.3 0 0 0 0 0 0.1 0 0.2 0 0-0.1 0-0.1 0.2 0 0.3 0 0 0 0 0 0.2 0 0.4 0 0 0 0-0.1 0.3 0 0.5 0c0.4 0 1.3 0 1.6 0q0.2 0 0.5 0 0 0.1 0 0.1 0.2 0 0.4 0 0 0 0 0 0.1 0 0.3 0 0 0 0 0.1 0.1 0 0.2 0 0 0 0 0 0.3 0 0.5 0 0 0.1 0 0.1 0.2 0 0.4 0 0 0 0 0.1 0.1 0 0.3 0 0 0 0 0 0.1 0 0.2 0 0 0.1 0 0.1 0 0 0.1 0 0 0 0 0 0.1 0 0.2 0 0 0 0 0.1 0 0 0.1 0 0 0 0 0 0.1 0 0.1 0 0 0 0 0 0.1 0 0.1 0 0 0.1 0 0.1 0.1 0 0.2 0 0 0 0 0 0.1 0 0.1 0 0 0 0 0.1 0.1 0 0.2 0 0 0 0 0c0 0.1-0.2 0.2-0.2 0.3q0 0.1 0 0.2 0 0 0 0 0 0.1 0 0.1 0 0-0.1 0 0 0.1 0 0.2 0 0 0 0 0 0.1 0 0.2 0 0 0 0 0 0 0 0.1-0.1 0-0.1 0 0 1.1 0 2.2zm3.4 6.6q0.1 0.2 0.2 0.4 0 0 0 0 0 0.1 0 0.1 0 0 0 0 0 0.1 0 0.2 0.1 0 0.1 0 0 0 0 0.1 0 0 0 0 0 0.1 0.1 0.3 0 0 0 0 0.1 0.6 0.2 1.2 0 0.2 0 0.4 0.1 0 0.1 0 0 0.3 0 0.6c0 0.6 0 1.1-0.2 1.5q0 0.2 0 0.4 0 0-0.1 0 0 0.2 0 0.3 0 0 0 0-0.1 0.2-0.1 0.3 0 0 0 0 0 0.1 0 0.1 0 0-0.1 0 0 0.1 0 0.2 0 0 0 0 0 0 0 0.1 0 0 0 0 0 0 0 0.1-0.1 0-0.1 0 0 0 0 0.1 0 0 0 0 0 0 0 0.1 0 0-0.1 0 0 0 0 0.1 0 0 0 0 0 0.1 0 0.1-0.1 0-0.1 0 0 0.1 0 0.1 0 0 0 0 0 0.1 0 0.1 0 0 0 0-0.1 0.1-0.1 0.2 0 0 0 0 0 0.1-0.1 0.2 0 0 0 0-0.1 0.1-0.1 0.2-0.1 0.1-0.1 0.1 0 0.1 0 0.1-0.1 0-0.1 0 0 0.1 0 0.2-0.1 0-0.1 0 0 0 0 0.1 0 0 0 0-0.1 0-0.1 0.1 0 0-0.1 0 0 0.1 0 0.1 0 0.1-0.1 0.1 0 0 0 0.1 0 0-0.1 0.1 0 0 0 0-0.1 0.1-0.2 0.2 0 0 0 0.1-0.2 0.2-0.4 0.3-0.3 0.3-0.5 0.6-0.1 0-0.1 0-0.1 0.1-0.2 0.2 0 0 0 0-0.1 0.1-0.1 0.1-0.1 0-0.1 0 0 0.1-0.1 0.1 0 0-0.1 0 0 0.1 0 0.1-0.1 0-0.1 0.1 0 0 0 0-0.1 0-0.1 0 0 0 0 0.1-0.1 0-0.2 0 0 0 0 0.1 0 0-0.1 0 0 0-0.1 0.1-0.1 0-0.2 0.1 0 0 0 0-0.1 0.1-0.2 0.1 0 0 0 0-0.1 0-0.2 0.1 0 0 0 0 0 0-0.1 0 0 0 0 0 0 0-0.1 0 0 0.1 0 0.1 0 0-0.1 0 0 0 0 0.1-0.1 0-0.1 0 0 0 0 0-0.1 0-0.1 0 0 0 0 0-0.1 0.1-0.2 0.1 0 0 0 0-0.1 0-0.1 0 0 0 0 0.1-0.1 0-0.2 0 0 0 0 0 0 0-0.1 0 0 0 0 0-0.1 0.1-0.3 0.1 0 0 0 0-0.1 0-0.3 0.1 0 0 0 0-0.1 0-0.2 0 0 0 0 0-0.1 0-0.2 0 0 0.1 0 0.1-0.1 0-0.2 0 0 0 0 0-0.2 0-0.3 0 0 0 0 0.1-0.2 0-0.4 0c-0.5 0.1-1.5 0-1.9-0.1q-0.1 0-0.2 0-0.7-0.2-1.4-0.4 0 0 0 0 0 0-0.1 0 0 0 0-0.1 0 0-0.1 0 0 0 0 0 0 0-0.1 0 0 0 0 0 0 0-0.1 0 0-0.1 0-0.1-0.1 0-0.1 0 0 0 0-0.1-0.1 0-0.1 0 0 0 0 0-0.2-0.1-0.4-0.1 0-0.1 0-0.1-0.1 0-0.1 0 0 0 0 0 0 0-0.1 0 0-0.1 0-0.1 0 0-0.1 0 0 0 0 0 0 0 0 0-0.1-0.1-0.1-0.1-0.1 0-0.1 0-0.1-0.1-0.1-0.1 0 0-0.1 0 0-0.1 0-0.1 0 0-0.1 0 0 0 0 0 0-0.1-0.1-0.1 0 0 0-0.1-0.1 0-0.1 0 0 0-0.1-0.1 0 0-0.1 0 0 0 0-0.1-0.1 0-0.1 0-0.1-0.1-0.2-0.2 0 0-0.1 0-0.3-0.4-0.6-0.7-0.2-0.1-0.3-0.2 0-0.1 0-0.1-0.1-0.1-0.2-0.2 0 0 0 0 0-0.1-0.1-0.1 0-0.1 0-0.1-0.1 0-0.1-0.1 0 0 0-0.1-0.1 0-0.1 0 0 0 0-0.1 0 0-0.1 0 0-0.1 0-0.1 0 0-0.1 0 0-0.1 0-0.1 0 0 0-0.1-0.1 0-0.1-0.1 0 0-0.1-0.1 0 0 0 0 0 0 0 0 0-0.1 0-0.1 0 0 0 0 0-0.1 0-0.1-0.1 0-0.1 0 0 0 0-0.1 0 0-0.1 0 0-0.2-0.1-0.4 0 0 0 0 0 0 0-0.1 0 0-0.1 0 0 0 0-0.1 0 0 0 0 0-0.1 0-0.1-0.1 0-0.1 0 0-0.1 0-0.1 0 0 0 0 0-0.1 0-0.1 0 0-0.1 0 0-0.1 0-0.1 0 0 0 0 0-0.1 0-0.1 0 0 0 0 0-0.1 0-0.2-0.1 0-0.1 0 0 0 0-0.1 0 0 0 0 0-0.1 0-0.1 0 0-0.1 0 0-0.1 0-0.2 0 0 0 0-0.1-0.6-0.2-1.2 0-0.2 0-0.4-0.1 0-0.1 0c0-0.2 0-1 0.1-1.2q0-0.2 0-0.4c0-0.3 0.1-0.6 0.2-0.9q0-0.1 0-0.2 0 0 0 0 0-0.1 0-0.1 0 0 0 0 0-0.1 0-0.2 0.1 0 0.1 0 0 0 0-0.1 0 0 0 0 0-0.1 0-0.1 0 0 0.1 0 0-0.1 0-0.2 0 0 0 0 0 0 0-0.1 0 0 0 0 0 0 0-0.1 0.1 0 0.1 0 0 0 0-0.1 0 0 0 0 0 0 0-0.1 0 0 0.1 0 0 0 0-0.1 0 0 0 0 0-0.1 0-0.1 0.1 0 0.1 0 0-0.1 0-0.1 0 0 0 0 0-0.1 0-0.1 0 0 0.1 0 0-0.1 0-0.2 0 0 0 0 0 0 0-0.1 0.1 0 0.1 0 0-0.1 0-0.1 0 0 0.1 0 0 0 0-0.1 0 0 0 0 0 0 0-0.1 0 0 0 0 0 0 0 0 0.1-0.1 0.1-0.1 0-0.1 0.1-0.1 0 0 0 0 0-0.1 0-0.2 0.1 0 0.1 0 0 0 0-0.1 0 0 0.1 0 0 0 0-0.1 0 0 0.1 0 0-0.1 0-0.1 0-0.1 0.1-0.1 0 0 0-0.1 0.1 0 0.1-0.1 0 0 0 0 0.1-0.1 0.2-0.2 0 0 0-0.1 0.3-0.2 0.5-0.4 0.2-0.3 0.4-0.5 0.1 0 0.1 0 0.1-0.1 0.2-0.2 0 0 0.1 0 0-0.1 0-0.1 0.1 0 0.1 0 0.1-0.1 0.1-0.1 0 0 0.1 0 0-0.1 0-0.1 0.1 0 0.1-0.1 0 0 0 0 0.1 0 0.1 0 0 0 0-0.1 0.1 0 0.2 0 0 0 0-0.1 0 0 0.1 0 0 0 0.1-0.1 0.1 0 0.2-0.1 0 0 0 0 0 0 0.1 0 0 0 0-0.1 0.2 0 0.4-0.1 0 0 0 0 0 0 0.1 0 0-0.1 0-0.1 0 0 0.1 0 0 0 0-0.1 0.1 0 0.1 0 0 0 0 0 0.1 0 0.1 0 0 0 0 0 0.1 0 0.1 0 0-0.1 0-0.1 0.1 0 0.1 0 0 0 0 0 0.1 0 0.1 0 0 0 0-0.1 0.1 0 0.2 0 0 0 0 0 0 0 0.1 0 0 0 0 0 0.1-0.1 0.3-0.1 0 0 0 0 0 0 0.1 0 0 0 0-0.1 0.1 0 0.2 0 0 0 0 0 0.1 0 0.2 0 0 0 0 0 0.1 0 0.2 0 0-0.1 0-0.1 0.1 0 0.2 0 0 0 0 0 0.2 0 0.3 0 0 0 0-0.1 0.2 0 0.4 0c0.2 0 1 0 1.2 0q0 0 0 0 0.2 0 0.4 0 0 0.1 0 0.1 0.1 0 0.3 0 0 0 0 0 0.1 0 0.2 0 0 0 0 0.1 0.1 0 0.2 0 0 0 0 0 0.2 0 0.4 0 0 0.1 0 0.1 0.1 0 0.1 0 0 0 0 0 0.2 0 0.3 0.1 0 0 0 0 0.1 0 0.1 0 0 0 0 0 0.1 0 0.2 0 0 0.1 0 0.1 0 0 0.1 0 0 0 0 0 0 0 0.1 0 0 0 0 0.1c0.1 0 0.3 0 0.4 0.1q-0.1 0-0.1 0c0 0.1-0.1 0.2-0.2 0.3q-0.3 0.2-0.5 0.4-0.2 0.3-0.4 0.5-0.1 0.1-0.2 0.2 0 0 0 0.1-0.1 0-0.2 0 0 0 0 0.1-0.1 0.1-0.2 0.1-0.1 0.2-0.2 0.3 0 0-0.1 0-0.2 0.3-0.5 0.5-0.2 0-0.4 0c0 0-0.7 0-0.8 0q0 0 0 0-0.2 0-0.4 0 0 0.1 0 0.1-0.1 0-0.2 0 0 0 0 0-0.1 0-0.2 0 0 0 0 0.1-0.1 0-0.2 0 0 0 0 0 0 0-0.1 0 0 0 0 0-0.1 0-0.1 0 0 0.1 0 0.1-0.1 0-0.1 0 0 0 0 0-0.1 0-0.3 0.1 0 0 0 0 0 0-0.1 0 0 0.1 0 0.1-0.1 0-0.1 0 0 0 0 0-0.1 0-0.1 0 0 0 0 0.1-0.1 0-0.1 0 0 0 0 0-0.2 0.1-0.3 0.1 0 0.1 0 0.1-0.1 0-0.2 0 0 0.1-0.1 0.2 0 0 0 0-0.1 0-0.1 0 0 0-0.1 0 0 0.1-0.1 0.2c-0.7 0.5-1.2 1.3-1.6 2.2q0 0.2 0 0.3-0.1 0-0.1 0 0 0.1 0 0.1 0 0 0 0 0 0.1 0 0.2 0 0-0.1 0 0 0.1 0 0.2c-0.1 0.5-0.1 1.5 0 2q0.1 0.2 0.1 0.4 0 0 0 0 0 0 0 0.1 0 0 0.1 0 0 0.1 0 0.3 0 0 0 0 0 0 0 0 0.1 0 0.1 0 0 0.1 0 0.2 0 0 0 0 0 0 0.1 0.1 0 0 0 0 0 0.2 0.1 0.4 0 0 0.1 0 0 0.1 0 0.2 0.1 0 0.1 0 0 0.1 0 0.2 0.1 0 0.2 0.1 0 0 0 0.1 0 0 0 0 0 0 0 0.1 0.1 0 0.2 0.1c0.7 0.9 1.6 1.4 2.8 1.8q0.1 0 0.2 0 0 0 0 0 0.1 0 0.2 0 0 0 0 0.1 0.2 0 0.4 0 0 0 0 0c0.2 0.1 0.7 0 0.8 0q0.2 0 0.4 0 0-0.1 0-0.1 0.1 0 0.2 0 0 0 0 0 0.1 0 0.2 0 0 0 0-0.1 0.1 0 0.2 0 0 0 0 0 0 0 0.1 0 0 0 0 0 0.1 0 0.1 0 0-0.1 0-0.1 0.1 0 0.1 0 0 0 0 0 0.1 0 0.3-0.1 0 0 0 0 0 0 0.1 0 0-0.1 0-0.1 0.2 0 0.4-0.1 0 0 0-0.1 0.1 0 0.2 0 0-0.1 0-0.1 0.1 0 0.1 0 0 0 0 0 0 0 0.1 0 0-0.1 0.1-0.2 0 0 0 0 0.1 0 0.1 0 0 0 0.1 0 0-0.1 0.1-0.2 0 0 0.1 0 0.1-0.2 0.3-0.4 0.2-0.1 0.3-0.2 0-0.1 0-0.1 0.1-0.1 0.2-0.1 0-0.1 0-0.1 0 0 0-0.1 0 0 0 0 0.1-0.1 0.2-0.1 0-0.1 0-0.1 0 0 0 0 0 0 0-0.1 0 0 0.1 0 0-0.1 0-0.2 0.1 0 0.1 0 0-0.1 0-0.1 0 0 0 0 0.1-0.1 0.1-0.2 0 0 0 0 0 0 0-0.1 0 0 0.1 0 0-0.1 0-0.1 0 0 0 0 0.1-0.1 0.1-0.2 0 0 0 0 0-0.2 0.1-0.3 0 0 0 0 0-0.1 0-0.1 0 0 0 0 0-0.1 0-0.2 0.1 0 0.1 0 0-0.1 0-0.2 0 0 0 0 0-0.1 0-0.2 0 0 0.1 0 0-0.2 0-0.4c0.1-0.3 0-0.8 0-1.2q0.1-0.1 0.2-0.2 0.1-0.1 0.1-0.1 0.2-0.2 0.5-0.4 0-0.1 0-0.1 0 0 0 0 0.1-0.1 0.2-0.2 0 0 0 0 0.1 0 0.1-0.1 0 0 0 0 0.2-0.2 0.4-0.4 0 0 0.1 0 0-0.1 0-0.1 0.1-0.1 0.1-0.1 0 0 0-0.1 0.1-0.1 0.3-0.2 0 0 0 0 0 0 0.1 0 0-0.1 0.1-0.2 0 0 0 0 0 0 0-0.1 0.1 0 0.1 0 0.1-0.1 0.1-0.2 0.1 0 0.1 0z"/></svg>